<?xml version="1.0" encoding="UTF-8"?>
<svg id="a" xmlns="http://www.w3.org/2000/svg" viewBox="0 0 200 1000">
    <defs>
        <style>.b{fill:#4e4140;}.c{fill:#1e1410;}</style>
    </defs>
    <path class="b"
        d="M45.71,438.88l.02,.65c-.47,4.27,2.49,7.09,4.28,10.44,4.14,7.7,3.79,15.51,.22,23.29-2.23,4.85-5.55,8.34-11.37,8.24-5.67-.1-7.99-4.3-9.62-8.65-4.39-11.68-2.84-23.51,.1-35.2,2.54-10.11,8.63-17.21,19.07-19.53,10.37-2.31,18.23,1.85,25.6,9.36,17.21,17.56,21.69,40.75,26.23,62.89,11.02,53.72,7.13,107.22-9.36,159.61-11.94,37.93-30.73,72.99-46.39,109.35-25.75,59.78-33.84,121.2-17.36,184.9,3.47,13.42,7.49,26.72,17.84,36.93,7.25,7.15,16.79,10.35,25.31,6.72,10.03-4.27,14.7-14.43,14.16-25.79-.46-9.78-1.4-19.52-13.69-22.38-5.82-1.35-10.12-5.47-13.88-9.89-8.1-9.55-8.45-21.95-1.03-28.17,5.91-4.95,15.74-2.46,24.47,6.19,18.17,18.02,23.39,60.37,10.13,82.21-10.79,17.78-31.61,22.03-48.71,9.89-16.12-11.44-22.91-28.93-27.6-46.73-13.09-49.63-8.83-99.02,3.38-148.37,11.15-45.1,30.35-87.15,47.11-130.13,25.91-66.45,33.52-134.81,22.35-205.21-2.35-14.77-7.45-28.53-22.13-35.87-7.75-3.87-14.86-4.23-19.12,5.24Z" />
    <path class="c"
        d="M45.71,438.88c4.26-9.47,11.37-9.12,19.12-5.24,14.69,7.34,19.79,21.09,22.13,35.87,11.18,70.4,3.57,138.76-22.35,205.21-16.76,42.98-35.95,85.03-47.11,130.13-12.2,49.35-16.47,98.74-3.38,148.37,4.7,17.8,11.48,35.29,27.6,46.73,17.1,12.14,37.92,7.89,48.71-9.89,13.25-21.84,8.03-64.19-10.13-82.21-8.73-8.66-18.57-11.15-24.47-6.19-7.42,6.22-7.07,18.62,1.03,28.17,3.75,4.43,8.05,8.54,13.88,9.89,12.3,2.85,13.23,12.59,13.69,22.38,.54,11.36-4.14,21.53-14.16,25.79-8.52,3.62-18.07,.43-25.31-6.72-10.35-10.21-14.36-23.51-17.84-36.93-16.48-63.7-8.38-125.12,17.36-184.9,15.66-36.37,34.45-71.42,46.39-109.35,16.49-52.39,20.38-105.88,9.36-159.61-4.54-22.13-9.02-45.33-26.23-62.89-7.37-7.52-15.23-11.67-25.6-9.36-10.43,2.32-16.52,9.42-19.07,19.53-2.94,11.68-4.49,23.52-.1,35.2,1.63,4.35,3.95,8.55,9.62,8.65,5.83,.1,9.15-3.38,11.37-8.24,3.57-7.78,3.91-15.6-.22-23.29-1.8-3.34-4.76-6.17-4.28-10.44,14.09,9.35,17.57,26.96,7.86,39.8-9.54,12.63-23.47,11.82-29.29-2.6-7.89-19.53-5.09-38.78,6.49-56.09,6.41-9.58,20.92-11.86,32.5-7.39,16.3,6.29,24.2,20.23,30.57,34.77,21.05,48.01,22.12,98.4,15.01,149.22-6.61,47.26-25.2,90.51-45.52,133.38-25.64,54.12-43.92,110.48-38.27,171.8,1.48,16.06,4.81,31.9,9.05,47.48,2.13,7.84,5.88,15.08,10.69,21.59,4.95,6.69,11.27,13.18,20.14,10.36,7.53-2.4,12.21-9.45,13.33-17.61,1.31-9.58-3.2-15.34-12.24-19.2-13.94-5.96-23.26-21.01-21.96-33.06,1.57-14.56,14.89-21.53,29.09-18.63,10.68,2.18,12.1,9.9,16.04,16.75,13.98,24.37,18.8,49.76,9.79,77.2-7.13,21.71-37.97,32.08-56.73,19.42-17.73-11.97-27.84-28.31-33.16-48.68-10.45-39.99-11.53-80.16-5.22-120.92,4.55-29.43,14.1-57.17,24.55-84.84,14-37.03,29.68-73.44,40.85-111.54,7.07-24.12,13.24-48.28,13.36-73.61,.08-15.31,4.84-30.12,4.05-45.65-1.11-21.66-3.79-42.96-9.99-63.73-4.84-16.2-12.69-20.8-31.01-18.86Z" />
    <path class="c"
        d="M112.9,280.97c-.13,21.73-1.97,43.49-7.73,64.34-5.95,21.52-34.33,42.61-57.92,36.16-11.72-3.21-19.89-6.83-24.81-17.54-5.7-12.4-5.1-24.72,.96-36.74,6.52-12.92,20.31-18.41,30.61-12.49,10.31,5.93,12.59,22.1,4.91,33.72-1.6,2.43-6.99,4.42-2.85,8.08,2.92,2.59,7.17,1.66,10.9-.19,12.06-5.98,17.98-16.31,19.59-29.03,2.6-20.53,3.33-40.75-.67-61.67-2.83-14.79-3.62-30.55-6.14-45.51-4.03-23.9-11.01-47.37-22.48-69.2-5.47-10.42-8.14-22.46-14.4-32.28-12.64-19.84-16.94-41.98-17.35-64.32-.3-16.6,5.41-33.15,17.57-46.06C50.49,.39,59.63-1.89,69.72,1.56c27.02,9.24,32.62,32.43,35.62,56.75,1.47,11.93,.43,23.8-6.51,34.4-6.09,9.3-16.01,10.79-24.27,3.44-13.48-11.99-14.89-36.35,4.14-42.8,4.26-1.44,4.33-4.67,4.08-8.36-.61-8.74-5.93-14.88-11.96-20.04-5.18-4.44-9.09-.51-11.95,4.14-9.08,14.79-8.01,30.98-5.37,46.94,5.57,33.7,21.58,63.43,36.74,93.43,12.64,25.02,18.43,51.71,19.87,79.56,.55,10.66,3.7,21.11,2.78,31.94Zm-4.64,11.24c-.69-43.76-3.93-77.81-17.49-109.88-9.27-21.93-21.73-42.36-30.88-64.41-10.26-24.72-15.25-50.03-10.8-76.65,2.61-15.61,9.88-24.74,18.51-24.82,8.22-.08,17,11.54,19.19,25.97,.92,6.06,1.76,12.12-5.18,16.2-11.41,6.71-13.8,19.74-5.88,30.08,4.57,5.98,10.09,6.69,15.85,1.72,4.19-3.61,6.82-8.33,7.95-13.77,3.85-18.59,.83-36.46-9.37-52.03-6.31-9.63-14.27-19.82-28.63-17.79-14.18,2-20.85,12.2-24.86,24.36-4.63,14.02-6.46,28.37-2.81,43.15,4.08,16.52,9.87,32.32,17.44,47.55,29.06,58.49,44.45,120.16,42.95,185.78-.29,12.89-2.87,25.24-7.77,37.02-4.09,9.82-12.35,15.82-22.14,18.84-6.89,2.13-12.78-1.2-16.68-7.34-2.54-4-.04-6.09,3.07-8.38,6.74-4.94,10.35-11.42,7.42-19.98-1.56-4.56-4.17-7.94-9.87-8.09-9.4-.25-16.46,3.43-20.93,11.59-7.95,14.49-1.18,34.06,14.04,41.16,20.23,9.44,40.93,1.5,51.64-18.33,12.12-22.45,15.9-46.28,15.24-61.96Z" />
    <path class="b"
        d="M108.26,292.21c.66,15.68-3.13,39.51-15.24,61.96-10.7,19.83-31.41,27.77-51.64,18.33-15.21-7.1-21.98-26.67-14.04-41.16,4.47-8.16,11.53-11.84,20.93-11.59,5.71,.15,8.31,3.53,9.87,8.09,2.93,8.56-.69,15.04-7.42,19.98-3.12,2.29-5.61,4.38-3.07,8.38,3.9,6.14,9.79,9.47,16.68,7.34,9.79-3.03,18.05-9.02,22.14-18.84,4.9-11.77,7.48-24.13,7.77-37.02,1.5-65.62-13.88-127.29-42.95-185.78-7.57-15.23-13.36-31.03-17.44-47.55-3.65-14.78-1.83-29.12,2.81-43.15,4.02-12.16,10.68-22.35,24.86-24.36,14.36-2.03,22.32,8.17,28.63,17.79,10.2,15.57,13.22,33.43,9.37,52.03-1.12,5.43-3.75,10.15-7.95,13.77-5.77,4.97-11.28,4.26-15.85-1.72-7.92-10.35-5.53-23.37,5.88-30.08,6.94-4.08,6.09-10.15,5.18-16.2-2.19-14.43-10.97-26.04-19.19-25.97-8.64,.08-15.91,9.21-18.51,24.82-4.45,26.61,.55,51.93,10.8,76.65,9.15,22.06,21.61,42.49,30.88,64.41,13.56,32.07,16.8,66.12,17.49,109.88Z" />
</svg>