<?xml version="1.0" encoding="UTF-8"?>
<svg id="a" xmlns="http://www.w3.org/2000/svg" viewBox="0 0 286.36 76.53">
    <defs>
        <style>.b{fill:#1c1311;}.c{fill:#4e403e;}</style>
    </defs>
    <path class="b"
        d="M71.21,60.15c-1.93-2.81-.04-5.79,.65-8.04,4.54-14.76,6.6-30.12,11.43-44.78,.51-1.53,.86-3.24,1.81-4.47,.74-.96,.56-3.07,2.26-2.84,1.79,.24,2.42,1.91,2.88,3.57,1.61,5.83,2.88,11.8,5.05,17.42,5.39,13.95,6.7,28.97,11.79,42.97,.5,1.39,.94,2.84,1.7,4.07,.83,1.34,2.12,3.69,3.48,2.76,1.43-.98,3.87-1.8,3.84-4.48-.26-18.4-.48-36.81-.58-55.22-.01-1.91-1.08-2.4-2.31-3.22-1.04-.69-2.42-1.64-1.42-3.17,.74-1.13,1-2.9,2.97-2.87,9.35,.14,18.84-1.52,28,1.45,15.02,4.87,20.03,22.19,9.47,33.88-3.6,3.98-4.79,6.9-2.68,12.19,3.02,7.59,6.29,14.93,10.9,21.67,.72,1.06,2.01,1.91,.99,3.41-.84,1.23-2.09,1.28-3.5,1.29-3.76,.04-7.53-.36-11.28,.65-2.42,.65-3.4-1.03-4.16-3.12-3.19-8.75-6.53-17.44-9.8-26.13-2.28,.81-2.32,2.48-2.28,4.17,.13,4.6,.2,9.2,.46,13.78,.13,2.35,1.08,4.44,3.14,5.88,1.13,.79,1.88,2.07,1.45,3.28-.45,1.26-1.84,1.52-3.28,1.69-7.51,.9-14.99-.29-22.49-.02-4.97,.18-9.95,0-14.93,.01-4.51,.01-6.22-2.14-4.03-6.04,.98-1.74,.8-3.16,.88-4.79,3.54,.2,3.64,2.57,2.58,4.83-.98,2.11-.64,3.28,1.5,3.48,4.48,.41,9.02,.8,13.89-.48-2.23-2.68-4.43-4.66-5.04-7.42-3.52-16.02-8.56-31.64-12.68-47.51-1.12-4.3-1.6-8.89-4.7-12.77-2.11,7.44-5.06,14.49-6.04,22.1-1.91,4.09-2.84,8.41-2.93,12.9-1.07,1.17-1.07,2.57-.88,4.02-2.5,1.73-2.45,4.47-1.64,6.62,.86,2.26,3.15,.09,4.82,.31,2.11,.28,4.27,.16,6.41,.15,2.44,0,4.57,1,4.68,3.39,.14,3.06,3.77,6.38-.36,9.26-1.44-1.07-1.31-2.88-1.71-4.28-1.69-5.85-3.47-7.08-9.46-5.98-1.3,.24-2.32,.8-2.59,1.92-1.28,5.22-5.04,10.22-1.47,15.94,.69,1.1,.71,2.69-.67,3.49-2.59,1.51-5.49,.96-8.16,.46-1.67-.31-1.22-2.35-.71-3.36,1.86-3.65-.78-9.21,4.84-11.23,.26,2.15-.08,4.21-.54,6.32-.28,1.3-2.37,3.53,.22,3.98,1.99,.35,1.01-2.22,1.27-3.51,.29-1.44,.48-2.91,.75-4.36,.29-1.59,.34-3.02-1.81-3.26Zm57.14-1.98c0-2.46-.31-4.97,.08-7.38,.42-2.57-.42-6.66,2.95-7.01,2.79-.29,4.16,3.38,5.13,5.91,2.01,5.21,3.53,10.6,5.52,15.82,2.91,7.64,5.16,8.89,12.79,8.27,3.34-.27,3.97-1.89,1.98-4.02-4.82-5.17-6.08-11.94-8.87-18.01-2.67-5.81-3.81-10.74,2.2-16.14,5.73-5.15,6.52-12.86,3.77-20.17-2.66-7.07-8.63-9.77-15.87-10.84-6.12-.9-12.23-.69-18.35-.89-3.35-.11-4.87,.42-2.36,3.89,1.29,1.78,.9,4.15,.81,6.26-.74,18.36,2.31,36.71,.06,55.09-.57,4.69,3.21,3.97,6.15,4.07,3.21,.11,5.35-.88,4.51-4.55-.78-3.42-.52-6.86-.51-10.3Zm-54.78-1.35l-.53,.71c.25,.08,.49,.19,.74,.22,.06,0,.25-.27,.22-.34-.09-.21-.27-.38-.42-.59Zm1.54-2.66l-.21-.39c-.09,.11-.25,.22-.26,.34-.01,.12,.12,.26,.19,.39l.28-.34Z" />
    <path class="b"
        d="M44,50.33l-.25-17c.56-.63,.5-1.24-.39-1.24-.75,0-.84,.78-.82,1.42-4.12,12.71-8.27,25.42-12.35,38.14-.68,2.12-1.74,3.3-4.22,3.26-2.19-.04-2.96-1.5-3.26-2.97-2.82-13.41-6.23-26.68-9.99-39.86-.43-1.49-.33-3.13-.49-4.85-.47,.34-.94,.52-.94,.7,0,14.8-2.54,29.79,2.36,44.25,.95,2.82,.24,3.1-1.84,3.41-1.31,.2-2.65,.32-3.97,.25-2.57-.14-6.1,1.46-7.47-.72-1.54-2.45,2.31-3.63,3.59-5.5,.84-1.24,.73-2.48,.73-3.75,.03-15.95,.25-31.9-.11-47.84-.08-3.63-.03-7.59-2.47-11.11C.5,4.61,1.54,2.07,4.98,1.96c4.48-.14,8.96-.17,13.44,0,2.89,.11,3.45,2.54,3.89,4.77,1.44,7.15,3.5,14.12,5.54,21.12,1.23,4.23,.66,8.97,3.27,13.75,1.98-6.46,3.81-12.32,5.57-18.21,1.85-6.19,3.62-12.4,5.47-18.59,.18-.6,.59-1.16,.99-1.65,1.63-1.99,17.61-1.8,19.01,.27,.78,1.16,.05,2.21-.74,3.1-1.89,2.13-2.01,4.72-2.22,7.38-1.31,16.42-1.07,32.86-.91,49.3,.02,2.1,.33,4.2,.51,6.3-4.31-1.74-3.13-5.73-3.18-8.77-.29-18.05-.19-36.1,2.38-54.03,.15-1.07,.24-1.87-.86-2.47-3.52-1.93-11.98,1.31-13.47,5.03-4.12,10.24-5.66,21.26-9.74,31.49-.69,1.74-.17,5.1-3.19,4.73-2.42-.3-2.41-3.31-2.91-5.25-2.24-8.74-4.19-17.55-6.37-26.3-2.54-10.2-2.66-10.18-13.32-9.38-2.9,.22-3.98,1.18-2.81,4.01,.88,2.14,1.47,4.35,1.4,6.71-.53,18.2,.96,36.44-.83,54.63-.1,.97-.29,2.11,.97,2.46,1.42,.39,2.26-.58,2.5-1.76,.26-1.27,.22-2.62,.13-3.92-.7-10.65-1.12-21.32-.79-31.99,.19-6.3,.67-12.59,1.06-19.57,2.05,1.64,2,3.4,2.38,4.86,3.19,12.03,6.28,24.08,9.41,36.13,1.12,4.29,2.22,8.58,3.4,12.85,.24,.88,.38,2.15,1.63,2.19,1.2,.03,1.44-1.19,1.86-2.03,.44-.88,.79-1.81,1.11-2.74,4.48-12.86,8.49-25.86,12.04-39,.54-1.99,.9-5.2,3.07-4.93,2.57,.32,1.5,3.49,1.54,5.47,.23,12.31,.29,24.61-.36,36.94-.15,2.92-4.27,6.41-.57,8.48,2.53,1.42,6.5,.13,9.79,.47,3.51,.36,4.28-1.23,3.82-4.18,3.02,0,3.27,2.48,3.23,4.32-.05,2.1-2.22,1.95-3.85,1.97-4.95,.06-9.9,.05-14.86,.13-2.2,.03-3.96-.6-2.66-3.03,3.06-5.72,2.9-11.92,3.28-18.06,.68-1.54,.67-3.08-.03-4.62Z" />
    <path class="b"
        d="M269.46,42.41c-3.64-.75-5.38,.22-5.04,4.39,.39,4.73-.12,9.53,.16,14.28,.14,2.36-1.53,5.54,1.99,6.9,3.76,1.45,9.78-.17,11.54-3.46,1.63-3.04,2.93-6.4,3.53-9.76,.34-1.93,1.16-2.7,2.58-2.81,2.05-.16,1.57,1.79,1.7,2.91,.69,5.57,.54,11.15-.47,16.68-.45,2.49-1.41,4.01-4.6,3.82-9.59-.58-19.19-.19-28.78,.45-5.56,.37-6.62-.98-4.18-6.04,1.56-3.24,2.13-6.47,2.09-9.97-.18-15.6-.31-31.2-.36-46.81,0-2.78-.39-5.23-2.97-6.81-1.24-.76-2.08-1.59-1.3-3.15,.61-1.23,1.32-2.25,2.92-2.24,10.94,0,21.89-.01,32.83,0,.99,0,2.11,.09,2.33,1.34,1.12,6.36,2.81,12.7,.9,20.76-1.95-3.9-3.32-6.46-4.54-9.09-1.51-3.26-4.11-5.03-7.54-5.81-6.13-1.39-7.67-.2-7.62,6.04,.04,5.58,.18,11.16,.25,16.75,.02,1.56,.23,2.98,2.03,3.51,2.05,.61,3.06-.76,3.98-2.14,1.64-2.45,1.78-5.22,1.72-8.05-.03-1.55-.56-3.55,2.06-3.61,2.14-.05,2.17,1.57,2.27,3.09,.7,10.17,.55,20.35,.25,30.53-.03,1.15-.16,2.44-1.61,2.69-2,.36-2.04-1.32-2.22-2.53-.63-4.18-2.6-7.9-3.91-11.85,3.48-1.14,3.01,3.19,5.18,3.91V29.91c-1.48,2.22-2.11,3.59-3.12,4.6-1.91,1.91-4.16,3.56-7.06,2.55-2.77-.96-1.82-3.63-1.87-5.57-.19-6.73,0-13.47-.19-20.21-.12-4.09,1.84-5.41,5.68-5.66,6.07-.4,10.7,1.82,14.29,6.8-.53-3.23,1.27-7.7-3.03-8.59-9.88-2.03-19.81-.02-30.91,.08,3.92,4.01,4.13,7.91,4.13,11.91-.01,11.99,.17,23.99,.04,35.98-.06,5.86,.82,11.82-1.65,17.52-1.02,2.35,.44,3.12,2.82,3.12,7.28,.02,14.56,.26,21.84,.32,7.54,.06,8.29-.83,7.51-9.06-1.33,1-2.71,1.68-3.57,2.77-3.28,4.19-7.75,4.49-12.55,4.34-2.73-.08-4.13-1.33-4.18-3.79-.18-7.88-.22-15.77-.21-23.65,0-1.98,1.12-3.64,3.16-3.83,1.79-.16,3.68,.36,3.71,2.84Z" />
    <path class="b"
        d="M209.05,4.69c3.87,2.69,4.81,7.23,6.82,11.02,4.66,8.82,8.93,17.83,13.79,26.71,1.07-10.97,1.38-21.87-.01-32.78-.02-.16-.04-.34-.13-.47-1.63-2.33-4.87-5.06-2.19-7.55,2.47-2.29,6.71-1.04,10.11-.76,3.19,.26,4.15,3.87,1.35,6.83-1.92,2.03-1.9,3.96-1.91,6.19-.1,18.73-.16,37.45-.3,56.18-.01,1.79,.85,4.14-2.06,4.82-2.59,.61-4.43-.13-5.69-2.56-3.88-7.49-7.77-14.98-11.84-22.39-5-9.1-9.16-18.66-13.64-27.95-2.35,.55-1.84,2.12-1.83,3.28,.11,12.98,.24,25.95,.49,38.93,.05,2.72-.23,5.66,2.22,7.79,.33,.29,.69,1.04,.54,1.27-2.36,3.72-6.17,2.34-9.44,2.31-2.32-.02-4.31-1.46-2.99-4.15,5.99-12.19,4.59-25.14,3.44-37.82-.7-7.71-.19-15.55-1.95-23.16-.21-.92-.57-1.83-.96-2.69-2.22-4.94-1.7-5.82,3.61-5.87,2.98-.03,5.97-.02,8.96-.01,1.94,0,3.72,.23,3.59,2.82-3.89-.93-7.86-.83-11.82-.88-2.27-.03-2.82,.69-2.09,2.98,1.12,3.52,2.53,7.2,2.49,10.79-.22,17.65,2.64,35.41-1.48,52.95-.3,1.27-.53,2.89,1.45,2.98,1.78,.07,3.37-.57,3.12-2.84-.24-2.11-.85-4.2-.86-6.31-.09-14.13-.06-28.27-.07-42.4,0-2.52,0-5.04,0-7.56,1.95,.12,2.29,.9,2.72,1.57,5.98,9.47,10.11,19.89,15.46,29.69,4.26,7.79,7.96,15.87,12.03,23.76,.61,1.17,1.2,3.19,3.01,2.67,1.53-.44,.72-2.27,.92-3.49,.93-5.73-.37-11.47,.08-17.19,.91-11.65,.83-23.28,0-34.93-.24-3.37-.92-6.94,1.8-9.86,.71-.77,2.01-1.81,.49-2.79-1.22-.79-2.78-1.18-4.29-.61-1.48,.56-1.2,1.84-.95,2.94,2.49,10.7,1.45,21.58,1.67,32.39,.06,3.08-.51,6.07-1.4,8.9-1.71,.12-1.81-1.13-2.34-1.86-7.37-10.25-11.39-22.21-17.29-33.22-1.25-2.34-3.39-4.58-2.61-7.68Z" />
    <path class="c"
        d="M91.25,64c4.13-2.89,.5-6.21,.36-9.26-.11-2.39-2.24-3.4-4.68-3.39-2.14,0-4.31,.12-6.41-.15-1.67-.22-3.96,1.95-4.82-.31-.81-2.15-.86-4.89,1.64-6.62h-.01c.49,3.94,2.98,5.29,8.59,4.94,2.92-.18,4.2-1.36,3.67-4.33-.92-5.13-2.46-10.09-4.07-15.04-.62-1.91-1.8-2.62-3.75-1.92-.21-.19-.41-.39-.62-.58,.97-7.61,3.93-14.66,6.04-22.1,3.1,3.88,3.58,8.47,4.7,12.77,4.12,15.86,9.16,31.48,12.68,47.51,.61,2.76,2.82,4.74,5.04,7.42-4.88,1.27-9.41,.89-13.89,.48-2.14-.2-2.48-1.37-1.5-3.48,1.06-2.26,.95-4.63-2.58-4.83l-.38-1.1Z" />
    <path class="b"
        d="M174.52,75.68c-.66,0-1.32,0-1.99,0-9.01-.06-8.98-.04-5.12-7.98,.48-.98,.59-2.21,.59-3.33,.1-16.73,.15-33.47,.23-50.2,.01-2.82-.32-5.43-2.12-7.88-1.83-2.5-1.81-4.59,2.33-4.5,5.46,.12,10.93,.1,16.39,.02,3.22-.05,3.95,1.64,2.45,3.92-2.41,3.65-2.51,7.59-2.55,11.65-.15,14.6-.38,29.2-.44,43.79-.01,3.88-.23,7.87,2.69,11.19,1.62,1.84,.27,2.5-1.57,2.63-3.63,.27-7.25,.57-10.88,.86v-.18Zm2.3-71.84c-1.99,0-3.98-.06-5.97,.02-1.37,.06-2.9,.24-2.09,2.26,3.06,7.58,1.99,15.54,2.05,23.36,.1,11.98-.25,23.97-.22,35.95,0,2.58-3.63,5.2-1.34,6.93,1.83,1.38,5.4,.49,8.2,.61,.33,.01,.66-.01,.99,0,3.33,.21,6.26,.28,3.87-4.53-.68-1.36-.4-3.23-.4-4.87,.04-16.42,.09-32.85,.2-49.27,.01-1.78-.02-3.83,.81-5.28,2.64-4.61,.86-5.7-3.64-5.19-.82,.09-1.66,.01-2.49,0Z" />
    <path class="c"
        d="M71.21,60.15c2.15,.25,2.1,1.68,1.81,3.26-.27,1.45-.46,2.91-.75,4.36-.26,1.29,.72,3.86-1.27,3.51-2.59-.45-.5-2.69-.22-3.98,.46-2.11,.8-4.18,.54-6.32,.05-.29,0-.56-.12-.82Z" />
    <path class="c" d="M44,50.33c.7,1.54,.71,3.08,.03,4.62-2.13-1.53-2.14-3.07-.03-4.62Z" />
    <path class="c" d="M42.54,33.51c-.02-.65,.06-1.43,.82-1.42,.89,0,.95,.61,.39,1.24l-1.21,.19Z" />
    <path class="c"
        d="M128.34,58.17c-.01,3.44-.27,6.89,.51,10.3,.84,3.67-1.3,4.66-4.51,4.55-2.94-.1-6.72,.63-6.15-4.07,2.25-18.38-.8-36.73-.06-55.09,.08-2.11,.48-4.48-.81-6.26-2.51-3.47-.99-4,2.36-3.89,6.12,.2,12.22-.01,18.35,.89,7.24,1.07,13.21,3.77,15.87,10.84,2.75,7.31,1.96,15.02-3.77,20.17-6.01,5.4-4.87,10.33-2.2,16.14,2.79,6.07,4.05,12.84,8.87,18.01,1.99,2.13,1.36,3.75-1.98,4.02-7.62,.61-9.87-.64-12.79-8.27-1.99-5.22-3.51-10.61-5.52-15.82-.98-2.53-2.34-6.19-5.13-5.91-3.38,.35-2.54,4.44-2.95,7.01-.39,2.4-.08,4.91-.08,7.38Zm-.06-36.36c.16,4.4-.16,8.78,.44,13.21,.64,4.68,2.91,4.83,6.48,3.45,6.91-2.67,10.82-11.7,8.53-20.05-1.25-4.57-3.46-8.48-8.26-10.23-4.52-1.65-7.02,0-7.18,4.79-.09,2.94-.02,5.89-.02,8.83Z" />
    <path class="c"
        d="M78.21,40.25c.09-4.5,1.02-8.81,2.93-12.9,.21,.19,.41,.38,.61,.57-1.15,4.14-1.15,8.58-3.37,12.44l-.17-.1Z" />
    <path class="c"
        d="M77.33,44.27c-.18-1.44-.18-2.85,.88-4.02l.17,.1c-.09,1.37,.16,2.84-1.07,3.9h.01Z" />
    <path class="c"
        d="M73.57,56.82c.16,.21,.34,.38,.42,.59,.03,.08-.16,.35-.22,.34-.25-.03-.49-.14-.74-.22l.53-.71Z" />
    <path class="c"
        d="M75.1,54.16l-.28,.34c-.07-.13-.2-.27-.19-.39,.01-.12,.17-.23,.26-.34l.21,.39Z" />
    <path class="c"
        d="M58.89,69.61c.46,2.95-.31,4.54-3.82,4.18-3.28-.34-7.26,.95-9.79-.47-3.7-2.07,.42-5.56,.57-8.48,.65-12.32,.58-24.62,.36-36.94-.04-1.98,1.03-5.15-1.54-5.47-2.16-.27-2.53,2.95-3.07,4.93-3.54,13.14-7.56,26.14-12.04,39-.32,.93-.67,1.86-1.11,2.74-.42,.84-.66,2.06-1.86,2.03-1.25-.03-1.38-1.31-1.63-2.19-1.19-4.27-2.29-8.56-3.4-12.85-3.13-12.04-6.23-24.1-9.41-36.13-.38-1.45-.33-3.21-2.38-4.86-.39,6.98-.87,13.27-1.06,19.57-.33,10.67,.09,21.34,.79,31.99,.09,1.3,.12,2.65-.13,3.92-.24,1.18-1.07,2.15-2.5,1.76-1.25-.35-1.06-1.49-.97-2.46,1.79-18.19,.3-36.42,.83-54.63,.07-2.35-.52-4.57-1.4-6.71-1.17-2.83-.09-3.79,2.81-4.01,10.65-.8,10.78-.83,13.32,9.38,2.18,8.75,4.13,17.56,6.37,26.3,.5,1.94,.48,4.95,2.91,5.25,3.02,.37,2.5-2.99,3.19-4.73,4.08-10.24,5.62-21.25,9.74-31.49,1.49-3.72,9.95-6.95,13.47-5.03,1.09,.6,1.01,1.4,.86,2.47-2.57,17.93-2.67,35.98-2.38,54.03,.05,3.04-1.13,7.03,3.18,8.77l.09,.11Z" />
    <path class="c"
        d="M269.46,42.41c-.03-2.48-1.92-3-3.71-2.84-2.04,.18-3.16,1.85-3.16,3.83-.01,7.88,.03,15.77,.21,23.65,.06,2.46,1.45,3.71,4.18,3.79,4.81,.14,9.27-.15,12.55-4.34,.85-1.09,2.24-1.76,3.57-2.77,.77,8.23,.03,9.12-7.51,9.06-7.28-.06-14.56-.31-21.84-.32-2.37,0-3.83-.77-2.82-3.12,2.47-5.71,1.59-11.66,1.65-17.52,.13-11.99-.05-23.99-.04-35.98,0-4-.21-7.9-4.13-11.91,11.1-.1,21.03-2.11,30.91-.08,4.3,.88,2.5,5.36,3.03,8.59-3.59-4.98-8.21-7.2-14.29-6.8-3.84,.25-5.79,1.58-5.68,5.66,.19,6.73,0,13.47,.19,20.21,.06,1.94-.89,4.61,1.87,5.57,2.9,1.01,5.16-.64,7.06-2.55,1.01-1.01,1.64-2.37,3.12-4.6v16.41c-2.17-.72-1.7-5.05-5.18-3.91h0Z" />
    <path class="c"
        d="M209.05,4.69c-.78,3.1,1.36,5.34,2.61,7.68,5.9,11.01,9.92,22.97,17.29,33.22,.53,.73,.63,1.98,2.34,1.86,.89-2.83,1.46-5.82,1.4-8.9-.22-10.81,.82-21.69-1.67-32.39-.26-1.1-.54-2.38,.95-2.94,1.52-.57,3.07-.18,4.29,.61,1.52,.99,.23,2.03-.49,2.79-2.73,2.93-2.04,6.49-1.8,9.86,.82,11.65,.91,23.28,0,34.93-.45,5.72,.86,11.46-.08,17.19-.2,1.22,.61,3.05-.92,3.49-1.81,.52-2.41-1.5-3.01-2.67-4.07-7.89-7.77-15.97-12.03-23.76-5.36-9.8-9.49-20.21-15.46-29.69-.43-.68-.77-1.46-2.72-1.57,0,2.52,0,5.04,0,7.56,0,14.13-.02,28.27,.07,42.4,.01,2.1,.63,4.2,.86,6.31,.25,2.27-1.34,2.92-3.12,2.84-1.97-.08-1.74-1.71-1.45-2.98,4.12-17.55,1.26-35.3,1.48-52.95,.04-3.6-1.37-7.27-2.49-10.79-.73-2.3-.18-3.01,2.09-2.98,3.96,.05,7.93-.05,11.82,.88h.03Z" />
    <path class="b"
        d="M77.32,44.26c1.22-1.07,.98-2.53,1.07-3.9,2.21-3.86,2.22-8.3,3.37-12.43,1.95-.69,3.13,.02,3.75,1.92,1.62,4.94,3.16,9.9,4.07,15.04,.53,2.97-.75,4.15-3.67,4.33-5.61,.35-8.1-1-8.59-4.95Zm6.65-8.73c-3.26,1.66-3.09,5.11-3.48,7.84-.34,2.42,2.39,2.79,4.32,2.78,2.49-.01,1.83-2.37,1.34-3.2-1.35-2.3,.19-5.3-2.18-7.41Z" />
    <path class="c"
        d="M176.84,3.85c.83,0,1.67,.09,2.49,0,4.5-.51,6.28,.58,3.64,5.19-.83,1.45-.8,3.5-.81,5.28-.12,16.42-.17,32.85-.2,49.27,0,1.64-.28,3.51,.4,4.87,2.39,4.81-.53,4.74-3.87,4.53-.33-.02-.66,0-.99,0-2.8-.11-6.37,.77-8.2-.61-2.3-1.73,1.34-4.35,1.34-6.93-.03-11.98,.32-23.97,.22-35.95-.07-7.82,1.01-15.77-2.05-23.36-.82-2.02,.72-2.21,2.09-2.26,1.99-.08,3.98-.02,5.97-.01Z" />
    <path class="b"
        d="M128.28,21.81c0-2.94-.08-5.89,.02-8.83,.15-4.78,2.65-6.45,7.18-4.79,4.8,1.76,7.01,5.67,8.26,10.23,2.28,8.34-1.62,17.37-8.53,20.05-3.57,1.38-5.84,1.23-6.48-3.45-.6-4.42-.28-8.81-.44-13.21Zm2.75,1.16h.04c0,3.92,.05,7.85-.02,11.77-.04,2.14,1.01,2.58,2.79,1.98,2.06-.7,3.99-1.69,5.13-3.63,3.2-5.41,2.71-11.24,1.4-16.95-.58-2.53-2.59-4.54-5.19-5.62-2.63-1.09-4.43-1.04-4.2,2.64,.2,3.26,.04,6.54,.04,9.81Z" />
</svg>