<?xml version="1.0" encoding="UTF-8"?>
<svg id="a" xmlns="http://www.w3.org/2000/svg" viewBox="0 0 200 1000">
    <defs>
        <style>.b{fill:#4e4140;}.c{fill:#1e1410;}</style>
    </defs>
    <path class="b"
        d="M67.35,438.88l-.02,.65c.47,4.27-2.49,7.09-4.28,10.44-4.14,7.7-3.79,15.51-.22,23.29,2.23,4.85,5.55,8.34,11.37,8.24,5.67-.1,7.99-4.3,9.62-8.65,4.39-11.68,2.84-23.51-.1-35.2-2.54-10.11-8.63-17.21-19.07-19.53-10.37-2.31-18.23,1.85-25.6,9.36-17.21,17.56-21.69,40.75-26.23,62.89-11.02,53.72-7.13,107.22,9.36,159.61,11.94,37.93,30.73,72.99,46.39,109.35,25.75,59.78,33.84,121.2,17.36,184.9-3.47,13.42-7.49,26.72-17.84,36.93-7.25,7.15-16.79,10.35-25.31,6.72-10.03-4.27-14.7-14.43-14.16-25.79,.46-9.78,1.4-19.52,13.69-22.38,5.82-1.35,10.12-5.47,13.88-9.89,8.1-9.55,8.45-21.95,1.03-28.17-5.91-4.95-15.74-2.46-24.47,6.19-18.17,18.02-23.39,60.37-10.13,82.21,10.79,17.78,31.61,22.03,48.71,9.89,16.12-11.44,22.91-28.93,27.6-46.73,13.09-49.63,8.83-99.02-3.38-148.37-11.15-45.1-30.35-87.15-47.11-130.13-25.91-66.45-33.52-134.81-22.35-205.21,2.35-14.77,7.45-28.53,22.13-35.87,7.75-3.87,14.86-4.23,19.12,5.24Z" />
    <path class="c"
        d="M67.35,438.88c-4.26-9.47-11.37-9.12-19.12-5.24-14.69,7.34-19.79,21.09-22.13,35.87-11.18,70.4-3.57,138.76,22.35,205.21,16.76,42.98,35.95,85.03,47.11,130.13,12.2,49.35,16.47,98.74,3.38,148.37-4.7,17.8-11.48,35.29-27.6,46.73-17.1,12.14-37.92,7.89-48.71-9.89-13.25-21.84-8.03-64.19,10.13-82.21,8.73-8.66,18.57-11.15,24.47-6.19,7.42,6.22,7.07,18.62-1.03,28.17-3.75,4.43-8.05,8.54-13.88,9.89-12.3,2.85-13.23,12.59-13.69,22.38-.54,11.36,4.14,21.53,14.16,25.79,8.52,3.62,18.07,.43,25.31-6.72,10.35-10.21,14.36-23.51,17.84-36.93,16.48-63.7,8.38-125.12-17.36-184.9-15.66-36.37-34.45-71.42-46.39-109.35-16.49-52.39-20.38-105.88-9.36-159.61,4.54-22.13,9.02-45.33,26.23-62.89,7.37-7.52,15.23-11.67,25.6-9.36,10.43,2.32,16.52,9.42,19.07,19.53,2.94,11.68,4.49,23.52,.1,35.2-1.63,4.35-3.95,8.55-9.62,8.65-5.83,.1-9.15-3.38-11.37-8.24-3.57-7.78-3.91-15.6,.22-23.29,1.8-3.34,4.76-6.17,4.28-10.44-14.09,9.35-17.57,26.96-7.86,39.8,9.54,12.63,23.47,11.82,29.29-2.6,7.89-19.53,5.09-38.78-6.49-56.09-6.41-9.58-20.92-11.86-32.5-7.39-16.3,6.29-24.2,20.23-30.57,34.77C-1.85,496.02-2.93,546.42,4.18,597.23c6.61,47.26,25.2,90.51,45.52,133.38,25.64,54.12,43.92,110.48,38.27,171.8-1.48,16.06-4.81,31.9-9.05,47.48-2.13,7.84-5.88,15.08-10.69,21.59-4.95,6.69-11.27,13.18-20.14,10.36-7.53-2.4-12.21-9.45-13.33-17.61-1.31-9.58,3.2-15.34,12.24-19.2,13.94-5.96,23.26-21.01,21.96-33.06-1.57-14.56-14.89-21.53-29.09-18.63-10.68,2.18-12.1,9.9-16.04,16.75-13.98,24.37-18.8,49.76-9.79,77.2,7.13,21.71,37.97,32.08,56.73,19.42,17.73-11.97,27.84-28.31,33.16-48.68,10.45-39.99,11.53-80.16,5.22-120.92-4.55-29.43-14.1-57.17-24.55-84.84-14-37.03-29.68-73.44-40.85-111.54-7.07-24.12-13.24-48.28-13.36-73.61-.08-15.31-4.84-30.12-4.05-45.65,1.11-21.66,3.79-42.96,9.99-63.73,4.84-16.2,12.69-20.8,31.01-18.86Z" />
    <path class="c"
        d="M2.95,249.02c1.44-27.84,7.23-54.54,19.87-79.56,15.16-29.99,31.17-59.73,36.74-93.43,2.64-15.95,3.71-32.14-5.37-46.94-2.86-4.66-6.76-8.58-11.95-4.14-6.03,5.16-11.35,11.3-11.96,20.04-.26,3.68-.19,6.91,4.08,8.36,19.03,6.45,17.63,30.81,4.14,42.8-8.26,7.35-18.19,5.86-24.27-3.44-6.94-10.61-7.98-22.48-6.51-34.4C10.72,33.99,16.32,10.8,43.34,1.56c10.09-3.45,19.23-1.18,26.62,6.67,12.16,12.9,17.87,29.46,17.57,46.06-.41,22.34-4.72,44.49-17.35,64.32-6.26,9.82-8.92,21.87-14.4,32.28-11.48,21.83-18.46,45.3-22.48,69.2-2.52,14.96-3.31,30.72-6.14,45.51-4,20.91-3.26,41.14-.67,61.67,1.61,12.72,7.53,23.05,19.59,29.03,3.73,1.85,7.97,2.78,10.9,.19,4.14-3.66-1.25-5.65-2.85-8.08-7.67-11.62-5.4-27.79,4.91-33.72,10.3-5.92,24.09-.43,30.61,12.49,6.06,12.02,6.66,24.34,.96,36.74-4.92,10.71-13.09,14.33-24.81,17.54-23.59,6.46-51.97-14.64-57.92-36.16C2.13,324.46,.3,302.69,.16,280.97c-.91-10.83,2.23-21.28,2.78-31.94Zm17.09,105.14c10.7,19.83,31.41,27.77,51.64,18.33,15.21-7.1,21.98-26.67,14.04-41.16-4.47-8.16-11.53-11.84-20.93-11.59-5.71,.15-8.31,3.53-9.87,8.09-2.93,8.56,.69,15.04,7.42,19.98,3.12,2.29,5.61,4.38,3.07,8.38-3.9,6.14-9.79,9.47-16.68,7.34-9.79-3.03-18.05-9.02-22.14-18.84-4.9-11.77-7.48-24.13-7.77-37.02-1.5-65.62,13.88-127.29,42.95-185.78,7.57-15.23,13.36-31.03,17.44-47.55,3.65-14.78,1.83-29.12-2.81-43.15-4.02-12.16-10.68-22.35-24.86-24.36-14.36-2.03-22.32,8.17-28.63,17.79-10.2,15.57-13.22,33.43-9.37,52.03,1.12,5.43,3.75,10.15,7.95,13.77,5.77,4.97,11.28,4.26,15.85-1.72,7.92-10.35,5.53-23.37-5.88-30.08-6.94-4.08-6.09-10.15-5.18-16.2,2.19-14.43,10.97-26.04,19.19-25.97,8.64,.08,15.91,9.21,18.51,24.82,4.45,26.61-.55,51.93-10.8,76.65-9.15,22.06-21.61,42.49-30.88,64.41-13.56,32.07-16.8,66.12-17.49,109.88-.66,15.68,3.13,39.51,15.24,61.96Z" />
    <path class="b"
        d="M4.8,292.21c-.66,15.68,3.13,39.51,15.24,61.96,10.7,19.83,31.41,27.77,51.64,18.33,15.21-7.1,21.98-26.67,14.04-41.16-4.47-8.16-11.53-11.84-20.93-11.59-5.71,.15-8.31,3.53-9.87,8.09-2.93,8.56,.69,15.04,7.42,19.98,3.12,2.29,5.61,4.38,3.07,8.38-3.9,6.14-9.79,9.47-16.68,7.34-9.79-3.03-18.05-9.02-22.14-18.84-4.9-11.77-7.48-24.13-7.77-37.02-1.5-65.62,13.88-127.29,42.95-185.78,7.57-15.23,13.36-31.03,17.44-47.55,3.65-14.78,1.83-29.12-2.81-43.15-4.02-12.16-10.68-22.35-24.86-24.36-14.36-2.03-22.32,8.17-28.63,17.79-10.2,15.57-13.22,33.43-9.37,52.03,1.12,5.43,3.75,10.15,7.95,13.77,5.77,4.97,11.28,4.26,15.85-1.72,7.92-10.35,5.53-23.37-5.88-30.08-6.94-4.08-6.09-10.15-5.18-16.2,2.19-14.43,10.97-26.04,19.19-25.97,8.64,.08,15.91,9.21,18.51,24.82,4.45,26.61-.55,51.93-10.8,76.65-9.15,22.06-21.61,42.49-30.88,64.41-13.56,32.07-16.8,66.12-17.49,109.88Z" />
</svg>